<?xml version="1.0" encoding="UTF-8"?>
<svg width="700pt" height="700pt" version="1.1" viewBox="0 0 700 700" xmlns="http://www.w3.org/2000/svg" xmlns:xlink="http://www.w3.org/1999/xlink">
 <defs>
  <symbol id="t" overflow="visible">
   <path d="m18.766-1.125c-0.96875 0.5-1.9805 0.875-3.0312 1.125-1.043 0.25781-2.1367 0.39062-3.2812 0.39062-3.3984 0-6.0898-0.94531-8.0781-2.8438-1.9922-1.9062-2.9844-4.4844-2.9844-7.7344 0-3.2578 0.99219-5.8359 2.9844-7.7344 1.9883-1.9062 4.6797-2.8594 8.0781-2.8594 1.1445 0 2.2383 0.13281 3.2812 0.39062 1.0508 0.25 2.0625 0.625 3.0312 1.125v4.2188c-0.98047-0.65625-1.9453-1.1406-2.8906-1.4531-0.94922-0.3125-1.9492-0.46875-3-0.46875-1.875 0-3.3516 0.60547-4.4219 1.8125-1.0742 1.1992-1.6094 2.8555-1.6094 4.9688 0 2.1055 0.53516 3.7617 1.6094 4.9688 1.0703 1.1992 2.5469 1.7969 4.4219 1.7969 1.0508 0 2.0508-0.14844 3-0.45312 0.94531-0.3125 1.9102-0.80078 2.8906-1.4688z"/>
  </symbol>
  <symbol id="d" overflow="visible">
   <path d="m13.734-11.141c-0.4375-0.19531-0.87109-0.34375-1.2969-0.4375-0.41797-0.10156-0.83984-0.15625-1.2656-0.15625-1.2617 0-2.2305 0.40625-2.9062 1.2188-0.67969 0.80469-1.0156 1.9531-1.0156 3.4531v7.0625h-4.8906v-15.312h4.8906v2.5156c0.625-1 1.3438-1.7266 2.1562-2.1875 0.82031-0.46875 1.8008-0.70312 2.9375-0.70312 0.16406 0 0.34375 0.011719 0.53125 0.03125 0.19531 0.011719 0.47656 0.039062 0.84375 0.078125z"/>
  </symbol>
  <symbol id="b" overflow="visible">
   <path d="m17.641-7.7031v1.4062h-11.453c0.125 1.1484 0.53906 2.0078 1.25 2.5781 0.70703 0.57422 1.7031 0.85938 2.9844 0.85938 1.0312 0 2.082-0.14844 3.1562-0.45312 1.082-0.3125 2.1914-0.77344 3.3281-1.3906v3.7656c-1.1562 0.4375-2.3125 0.76562-3.4688 0.98438-1.1562 0.22656-2.3125 0.34375-3.4688 0.34375-2.7734 0-4.9297-0.70312-6.4688-2.1094-1.5312-1.4062-2.2969-3.3789-2.2969-5.9219 0-2.5 0.75391-4.4609 2.2656-5.8906 1.5078-1.4375 3.582-2.1562 6.2188-2.1562 2.4062 0 4.332 0.73047 5.7812 2.1875 1.4453 1.4492 2.1719 3.3828 2.1719 5.7969zm-5.0312-1.625c0-0.92578-0.27344-1.6719-0.8125-2.2344-0.54297-0.57031-1.25-0.85938-2.125-0.85938-0.94922 0-1.7188 0.26562-2.3125 0.79688s-0.96484 1.2969-1.1094 2.2969z"/>
  </symbol>
  <symbol id="a" overflow="visible">
   <path d="m9.2188-6.8906c-1.0234 0-1.793 0.17188-2.3125 0.51562-0.51172 0.34375-0.76562 0.85547-0.76562 1.5312 0 0.625 0.20703 1.1172 0.625 1.4688 0.41406 0.34375 0.98828 0.51562 1.7188 0.51562 0.92578 0 1.7031-0.32812 2.3281-0.98438 0.63281-0.66406 0.95312-1.4922 0.95312-2.4844v-0.5625zm7.4688-1.8438v8.7344h-4.9219v-2.2656c-0.65625 0.92969-1.3984 1.6055-2.2188 2.0312-0.82422 0.41406-1.8242 0.625-3 0.625-1.5859 0-2.8711-0.45703-3.8594-1.375-0.99219-0.92578-1.4844-2.1289-1.4844-3.6094 0-1.7891 0.61328-3.1016 1.8438-3.9375 1.2383-0.84375 3.1797-1.2656 5.8281-1.2656h2.8906v-0.39062c0-0.76953-0.30859-1.332-0.92188-1.6875-0.61719-0.36328-1.5703-0.54688-2.8594-0.54688-1.0547 0-2.0312 0.10547-2.9375 0.3125-0.89844 0.21094-1.7305 0.52344-2.5 0.9375v-3.7344c1.0391-0.25 2.0859-0.44141 3.1406-0.57812 1.0625-0.13281 2.125-0.20312 3.1875-0.20312 2.7578 0 4.75 0.54688 5.9688 1.6406 1.2266 1.0859 1.8438 2.8555 1.8438 5.3125z"/>
  </symbol>
  <symbol id="c" overflow="visible">
   <path d="m7.7031-19.656v4.3438h5.0469v3.5h-5.0469v6.5c0 0.71094 0.14062 1.1875 0.42188 1.4375s0.83594 0.375 1.6719 0.375h2.5156v3.5h-4.1875c-1.9375 0-3.3125-0.39844-4.125-1.2031-0.80469-0.8125-1.2031-2.1797-1.2031-4.1094v-6.5h-2.4219v-3.5h2.4219v-4.3438z"/>
  </symbol>
  <symbol id="f" overflow="visible">
   <path d="m12.766-13.078v-8.2031h4.9219v21.281h-4.9219v-2.2188c-0.66797 0.90625-1.4062 1.5703-2.2188 1.9844s-1.7578 0.625-2.8281 0.625c-1.8867 0-3.4336-0.75-4.6406-2.25-1.2109-1.5-1.8125-3.4258-1.8125-5.7812 0-2.3633 0.60156-4.2969 1.8125-5.7969 1.207-1.5 2.7539-2.25 4.6406-2.25 1.0625 0 2 0.21484 2.8125 0.64062 0.82031 0.42969 1.5664 1.0859 2.2344 1.9688zm-3.2188 9.9219c1.0391 0 1.8359-0.37891 2.3906-1.1406 0.55078-0.76953 0.82812-1.8828 0.82812-3.3438 0-1.457-0.27734-2.5664-0.82812-3.3281-0.55469-0.76953-1.3516-1.1562-2.3906-1.1562-1.043 0-1.8398 0.38672-2.3906 1.1562-0.55469 0.76172-0.82812 1.8711-0.82812 3.3281 0 1.4609 0.27344 2.5742 0.82812 3.3438 0.55078 0.76172 1.3477 1.1406 2.3906 1.1406z"/>
  </symbol>
  <symbol id="l" overflow="visible">
   <path d="m10.5-3.1562c1.0508 0 1.8516-0.37891 2.4062-1.1406 0.55078-0.76953 0.82812-1.8828 0.82812-3.3438 0-1.457-0.27734-2.5664-0.82812-3.3281-0.55469-0.76953-1.3555-1.1562-2.4062-1.1562-1.0547 0-1.8594 0.38672-2.4219 1.1562-0.55469 0.77344-0.82812 1.8828-0.82812 3.3281 0 1.4492 0.27344 2.5586 0.82812 3.3281 0.5625 0.77344 1.3672 1.1562 2.4219 1.1562zm-3.25-9.9219c0.67578-0.88281 1.4219-1.5391 2.2344-1.9688 0.82031-0.42578 1.7656-0.64062 2.8281-0.64062 1.8945 0 3.4453 0.75 4.6562 2.25 1.207 1.5 1.8125 3.4336 1.8125 5.7969 0 2.3555-0.60547 4.2812-1.8125 5.7812-1.2109 1.5-2.7617 2.25-4.6562 2.25-1.0625 0-2.0078-0.21094-2.8281-0.625-0.8125-0.42578-1.5586-1.0859-2.2344-1.9844v2.2188h-4.8906v-21.281h4.8906z"/>
  </symbol>
  <symbol id="k" overflow="visible">
   <path d="m0.34375-15.312h4.8906l4.125 10.391 3.5-10.391h4.8906l-6.4375 16.766c-0.64844 1.6953-1.4023 2.8828-2.2656 3.5625-0.86719 0.6875-2 1.0312-3.4062 1.0312h-2.8438v-3.2188h1.5312c0.83203 0 1.4375-0.13672 1.8125-0.40625 0.38281-0.26172 0.67969-0.73047 0.89062-1.4062l0.14062-0.42188z"/>
  </symbol>
  <symbol id="j" overflow="visible">
   <path d="m14.953-3.7188h-8.2188l-1.3125 3.7188h-5.2812l7.5625-20.406h6.2656l7.5625 20.406h-5.2812zm-6.9062-3.7812h5.5781l-2.7812-8.125z"/>
  </symbol>
  <symbol id="i" overflow="visible">
   <path d="m16.547-12.766c0.61328-0.94531 1.3477-1.6719 2.2031-2.1719 0.85156-0.5 1.7891-0.75 2.8125-0.75 1.7578 0 3.0977 0.54688 4.0156 1.6406 0.92578 1.0859 1.3906 2.6562 1.3906 4.7188v9.3281h-4.9219v-7.9844-0.35938c0.007813-0.13281 0.015625-0.32031 0.015625-0.5625 0-1.082-0.16406-1.8633-0.48438-2.3438-0.3125-0.48828-0.82422-0.73438-1.5312-0.73438-0.92969 0-1.6484 0.38672-2.1562 1.1562-0.51172 0.76172-0.77344 1.8672-0.78125 3.3125v7.5156h-4.9219v-7.9844c0-1.6953-0.14844-2.7852-0.4375-3.2656-0.29297-0.48828-0.8125-0.73438-1.5625-0.73438-0.9375 0-1.6641 0.38672-2.1719 1.1562-0.51172 0.76172-0.76562 1.8594-0.76562 3.2969v7.5312h-4.9219v-15.312h4.9219v2.2344c0.60156-0.86328 1.2891-1.5156 2.0625-1.9531 0.78125-0.4375 1.6406-0.65625 2.5781-0.65625 1.0625 0 2 0.25781 2.8125 0.76562 0.8125 0.51172 1.4258 1.2305 1.8438 2.1562z"/>
  </symbol>
  <symbol id="h" overflow="visible">
   <path d="m17.75-9.3281v9.3281h-4.9219v-7.1406c0-1.3203-0.03125-2.2344-0.09375-2.7344s-0.16797-0.86719-0.3125-1.1094c-0.1875-0.3125-0.44922-0.55469-0.78125-0.73438-0.32422-0.17578-0.69531-0.26562-1.1094-0.26562-1.0234 0-1.8242 0.39844-2.4062 1.1875-0.58594 0.78125-0.875 1.8711-0.875 3.2656v7.5312h-4.8906v-15.312h4.8906v2.2344c0.73828-0.88281 1.5195-1.5391 2.3438-1.9688 0.83203-0.42578 1.75-0.64062 2.75-0.64062 1.7695 0 3.1133 0.54688 4.0312 1.6406 0.91406 1.0859 1.375 2.6562 1.375 4.7188z"/>
  </symbol>
  <symbol id="s" overflow="visible">
   <path d="m2.5781-20.406h5.25v7.7656h7.7656v-7.7656h5.2656v20.406h-5.2656v-8.6562h-7.7656v8.6562h-5.25z"/>
  </symbol>
  <symbol id="g" overflow="visible">
   <path d="m2.1875-5.9688v-9.3438h4.9219v1.5312c0 0.83594-0.007813 1.875-0.015625 3.125-0.011719 1.25-0.015625 2.0859-0.015625 2.5 0 1.2422 0.03125 2.1328 0.09375 2.6719 0.070313 0.54297 0.17969 0.93359 0.32812 1.1719 0.20703 0.32422 0.47266 0.57422 0.79688 0.75 0.32031 0.16797 0.69141 0.25 1.1094 0.25 1.0195 0 1.8203-0.39062 2.4062-1.1719 0.58203-0.78125 0.875-1.8672 0.875-3.2656v-7.5625h4.8906v15.312h-4.8906v-2.2188c-0.74219 0.89844-1.5234 1.5586-2.3438 1.9844-0.82422 0.41406-1.7344 0.625-2.7344 0.625-1.7617 0-3.1055-0.53906-4.0312-1.625-0.92969-1.082-1.3906-2.6602-1.3906-4.7344z"/>
  </symbol>
  <symbol id="r" overflow="visible">
   <path d="m12.422-21.281v3.2188h-2.7031c-0.6875 0-1.1719 0.125-1.4531 0.375-0.27344 0.25-0.40625 0.6875-0.40625 1.3125v1.0625h4.1875v3.5h-4.1875v11.812h-4.8906v-11.812h-2.4375v-3.5h2.4375v-1.0625c0-1.6641 0.46094-2.8984 1.3906-3.7031 0.92578-0.80078 2.3672-1.2031 4.3281-1.2031z"/>
  </symbol>
  <symbol id="e" overflow="visible">
   <path d="m9.6406-12.188c-1.0859 0-1.9141 0.39062-2.4844 1.1719-0.57422 0.78125-0.85938 1.9062-0.85938 3.375s0.28516 2.5938 0.85938 3.375c0.57031 0.77344 1.3984 1.1562 2.4844 1.1562 1.0625 0 1.875-0.38281 2.4375-1.1562 0.57031-0.78125 0.85938-1.9062 0.85938-3.375s-0.28906-2.5938-0.85938-3.375c-0.5625-0.78125-1.375-1.1719-2.4375-1.1719zm0-3.5c2.6328 0 4.6914 0.71484 6.1719 2.1406 1.4766 1.418 2.2188 3.3867 2.2188 5.9062 0 2.5117-0.74219 4.4805-2.2188 5.9062-1.4805 1.418-3.5391 2.125-6.1719 2.125-2.6484 0-4.7148-0.70703-6.2031-2.125-1.4922-1.4258-2.2344-3.3945-2.2344-5.9062 0-2.5195 0.74219-4.4883 2.2344-5.9062 1.4883-1.4258 3.5547-2.1406 6.2031-2.1406z"/>
  </symbol>
  <symbol id="q" overflow="visible">
   <path d="m17.75-9.3281v9.3281h-4.9219v-7.1094c0-1.3438-0.03125-2.2656-0.09375-2.7656s-0.16797-0.86719-0.3125-1.1094c-0.1875-0.3125-0.44922-0.55469-0.78125-0.73438-0.32422-0.17578-0.69531-0.26562-1.1094-0.26562-1.0234 0-1.8242 0.39844-2.4062 1.1875-0.58594 0.78125-0.875 1.8711-0.875 3.2656v7.5312h-4.8906v-21.281h4.8906v8.2031c0.73828-0.88281 1.5195-1.5391 2.3438-1.9688 0.83203-0.42578 1.75-0.64062 2.75-0.64062 1.7695 0 3.1133 0.54688 4.0312 1.6406 0.91406 1.0859 1.375 2.6562 1.375 4.7188z"/>
  </symbol>
  <symbol id="p" overflow="visible">
   <path d="m2.5781-20.406h5.875l7.4219 14v-14h4.9844v20.406h-5.875l-7.4219-14v14h-4.9844z"/>
  </symbol>
  <symbol id="o" overflow="visible">
   <path d="m2.5781-20.406h8.7344c2.5938 0 4.582 0.57812 5.9688 1.7344 1.3945 1.1484 2.0938 2.7891 2.0938 4.9219 0 2.1367-0.69922 3.7812-2.0938 4.9375-1.3867 1.1562-3.375 1.7344-5.9688 1.7344h-3.4844v7.0781h-5.25zm5.25 3.8125v5.7031h2.9219c1.0195 0 1.8047-0.25 2.3594-0.75 0.5625-0.5 0.84375-1.2031 0.84375-2.1094 0-0.91406-0.28125-1.6172-0.84375-2.1094-0.55469-0.48828-1.3398-0.73438-2.3594-0.73438z"/>
  </symbol>
  <symbol id="n" overflow="visible">
   <path d="m2.3594-15.312h4.8906v15.031c0 2.0508-0.49609 3.6172-1.4844 4.7031-0.98047 1.082-2.4062 1.625-4.2812 1.625h-2.4219v-3.2188h0.85938c0.92578 0 1.5625-0.21094 1.9062-0.625 0.35156-0.41797 0.53125-1.2461 0.53125-2.4844zm0-5.9688h4.8906v4h-4.8906z"/>
  </symbol>
  <symbol id="m" overflow="visible">
   <path d="m14.719-14.828v3.9844c-0.65625-0.45703-1.3242-0.79688-2-1.0156-0.66797-0.21875-1.3594-0.32812-2.0781-0.32812-1.3672 0-2.4336 0.40234-3.2031 1.2031-0.76172 0.79297-1.1406 1.9062-1.1406 3.3438 0 1.4297 0.37891 2.543 1.1406 3.3438 0.76953 0.79297 1.8359 1.1875 3.2031 1.1875 0.75781 0 1.4844-0.10938 2.1719-0.32812 0.6875-0.22656 1.3203-0.56641 1.9062-1.0156v4c-0.76172 0.28125-1.5391 0.48828-2.3281 0.625-0.78125 0.14453-1.5742 0.21875-2.375 0.21875-2.7617 0-4.9219-0.70703-6.4844-2.125-1.5547-1.4141-2.3281-3.3828-2.3281-5.9062 0-2.5312 0.77344-4.5039 2.3281-5.9219 1.5625-1.4141 3.7227-2.125 6.4844-2.125 0.80078 0 1.5938 0.074219 2.375 0.21875 0.78125 0.13672 1.5547 0.35156 2.3281 0.64062z"/>
  </symbol>
 </defs>
 <g>
  <path d="m356 220.45v-1.4375c0-5.3008 0.039062-10.605-0.007812-15.906-0.12109-14.348 8.9414-28.047 23.367-33.246 3.25-1.1719 6.5977-1.8945 10.066-1.9922 1.2109-0.035156 2.4258-0.085938 3.6367-0.089844 24.211-0.003906 48.422-0.003906 72.629-0.003906 5.5469 0 10.832 1.1641 15.816 3.6055 3.2188 1.5742 6.1289 3.6055 8.7305 6.082 4.3984 4.1875 7.5352 9.1562 9.3906 14.938 1.0977 3.4141 1.6523 6.918 1.6641 10.5 0.015625 5.3828 0.003906 10.766 0.003906 16.148v1.375c0.28906 0.054688 0.51562 0.125 0.74609 0.13281 0.40234 0.019531 0.80859 0.007812 1.2148 0.007812 28.258 0 56.516 0.003906 84.777-0.007812 2.0195 0 3.9453 0.32812 5.7656 1.1836 4.1875 1.9688 6.8203 5.1992 7.8477 9.7305 0.21875 0.95703 0.26172 1.9219 0.26172 2.8906 0 14.609 0 29.223 0.003906 43.832 0 0.72656 0.078126 1.4531 0.082032 2.1797 0.007812 1.6562-0.003906 3.3125-0.019532 4.9688-0.007812 0.64844-0.0625 1.293-0.0625 1.9375-0.003906 53.59-0.003906 107.18 0.007813 160.77 0 1.8906-0.26562 3.7148-1.0273 5.4414-2.0078 4.5469-5.4414 7.3398-10.344 8.2656-0.82812 0.15625-1.6875 0.20703-2.5312 0.21094-13.848 0.011718-27.691 0.007812-41.539 0.007812-92.348 0-184.69 0-277.04 0.007813-2.0586 0-4.0078-0.37109-5.8906-1.1914-4.5938-2.0039-7.9531-6.7461-8.1172-11.766-0.035156-1.1328-0.085938-2.2617-0.085938-3.3945-0.003906-52.332-0.003906-104.67-0.007812-157 0-2.3867-0.13281-4.7734-0.097656-7.1602 0.23437-15.418 0.03125-30.84 0.10547-46.258 0.011719-2.0703 0.19922-4.1172 1.0352-6.0547 1.9492-4.5234 5.3047-7.3242 10.133-8.3711 0.80078-0.17578 1.6016-0.22266 2.4102-0.22656 2.3867-0.003906 4.7773 0 7.1641 0 26.074 0 52.145 0 78.219-0.003906 0.51562 0.011718 1.0391 0.070312 1.6914-0.10156zm-76.926 23.816v1.582c0 13.68-0.003907 27.359 0.007812 41.039 0 1.1719 0.078125 2.3438 0.14844 3.5117 0.22266 3.8398 0.75391 7.6445 1.5039 11.414 0.82031 4.1328 1.9648 8.1719 3.6523 12.043 1.4297 3.2812 3.1953 6.3594 5.6133 9.0273 2.4375 2.6953 5.3594 4.6523 8.8281 5.7812 2.6836 0.875 5.457 1.168 8.2539 1.168 35.059 0.019531 70.117 0.011718 105.18 0.011718h1.1289c0.13281-0.14062 0.19531-0.19531 0.23828-0.25781 0.11719-0.16406 0.22266-0.33984 0.33594-0.50781 2.8008-4.1758 6.7266-6.293 11.746-6.3633 1.9844-0.027344 3.9688-0.023438 5.9492 0.003906 0.80859 0.011719 1.625 0.039063 2.418 0.1875 3.9805 0.73828 7.0977 2.8047 9.3242 6.1953 0.15234 0.23438 0.3125 0.46484 0.5 0.74609h1.5664c34.734 0 69.473 0 104.21-0.003906 1.9023 0 3.7969-0.12109 5.6797-0.42578 3.8047-0.61719 7.1797-2.1484 10.082-4.6992 2.9688-2.6133 5.1055-5.8359 6.7852-9.375 2.5195-5.3047 3.9883-10.926 4.875-16.703 0.36719-2.3945 0.65234-4.8086 0.88672-7.2227 0.16797-1.7266 0.27344-3.4688 0.27734-5.207 0.023437-13.398 0.011719-26.793 0.011719-40.191 0-0.36328 0.015624-0.73047-0.007813-1.0938-0.015625-0.23047-0.082031-0.45313-0.14062-0.75781-99.473 0-198.9 0-298.32 0.003906-0.19531 0.007813-0.38672 0.050781-0.72656 0.09375zm132.64 109.25c-0.58984-0.15625-1.1133-0.09375-1.6328-0.09375-34.289-0.003906-68.582-0.003906-102.87 0-3.5703 0-7.1094-0.27734-10.609-0.97656-4.1445-0.83203-8.1055-2.1875-11.859-4.1445-1.7227-0.89844-3.3672-1.9297-4.9648-3.0391-0.18359-0.12891-0.36328-0.35547-0.67578-0.14844-0.011719 0.21484-0.03125 0.45312-0.03125 0.69141 0.011719 30.719 0.019531 61.438 0.035156 92.156 0 0.039062 0.015625 0.082031 0.035156 0.11328s0.050781 0.058594 0.12891 0.14453c0.48828 0.17188 1.0586 0.082032 1.6172 0.082032 98.5 0.003906 197 0.003906 295.5 0.003906 0.40625 0 0.80859 0.007812 1.2148-0.011719 0.19531-0.007813 0.38281-0.078125 0.64453-0.13281 0.007812-0.50781 0.023437-0.98828 0.023437-1.4688v-90.336c0-0.28516 0.003907-0.56641-0.003906-0.85156-0.007813-0.19141 0.042969-0.41016-0.19922-0.51562-0.039062 0.003906-0.085937-0.003907-0.11719 0.011718-0.30469 0.19531-0.61328 0.38672-0.91016 0.58984-4.1406 2.8359-8.6289 4.9062-13.488 6.1914-4.2891 1.1328-8.6523 1.6328-13.082 1.6328h-102.99c-0.44531 0-0.89062-0.003907-1.3359 0.007812-0.15234 0.003907-0.30859 0.054688-0.53906 0.097657-0.015624 0.46094-0.035156 0.89453-0.042968 1.332-0.035156 2.0625 0 4.1289-0.10938 6.1875-0.14062 2.6172-1.1016 4.9727-2.6992 7.0312-2.7773 3.5742-6.457 5.4062-10.996 5.4688-2.0234 0.027343-4.0469 0.019531-6.0742-0.003907-0.76563-0.007812-1.5352-0.0625-2.2891-0.1875-4.3008-0.70312-7.5352-2.9922-9.7578-6.7031-1.2734-2.1289-1.8398-4.4727-1.8477-6.9492-0.003906-1.6602 0.003906-3.3203-0.003906-4.9766 0-0.39453-0.039062-0.78906-0.0625-1.2031zm65.926-133.07c0.023438-0.38672 0.054688-0.70312 0.054688-1.0234 0.003906-5.3398 0.011719-10.684-0.007813-16.023-0.003906-0.84375-0.070312-1.707-0.24219-2.5312-1.0742-5.2383-5.168-8.4258-9.0898-9.2227-1.0039-0.20312-2.0039-0.24219-3.0156-0.24219h-73.465c-0.32422 0-0.64844 0-0.97266 0.003906-0.9375 0.003907-1.8438 0.18359-2.7461 0.42578-4.7188 1.2773-8.5977 5.8086-8.5664 11.363 0.015625 2.3477 0.003906 4.6953 0.003906 7.0391 0 3.0742-0.003906 6.1523 0.003906 9.2266 0 0.34766-0.10937 0.73047 0.1875 1.0234 1.2812 0.12891 96.809 0.10156 97.855-0.039063zm-51.527 116.53c-0.03125 0.39062-0.070313 0.66406-0.074219 0.9375-0.003907 6.8242-0.003907 13.652 0 20.477 0 0.26953 0.0625 0.53906 0.097656 0.79297 1.4844 0.21484 4.332 0.16016 5.1289-0.10547 0.011719-0.41406 0.03125-0.85547 0.03125-1.293 0.003907-6.4219 0-12.844 0-19.266 0-0.28125 0.015625-0.56641-0.007812-0.84766-0.019531-0.22656-0.09375-0.44922-0.15234-0.69531h-5.0234z"/>
  <path d="m180.14 233.64c0.23828-0.41406 0.47266-0.83203 0.71094-1.2461 2.7461-4.8086 6.4336-8.707 11.258-11.465 4.1211-2.3516 8.5391-3.5547 13.316-3.5273 7.2539 0.039062 13.527 2.543 18.875 7.3555 5.0508 4.5469 8.0469 10.266 9.2422 16.934 0.34375 1.9141 0.42969 3.8594 0.42969 5.8008 0.003906 42.336 0.003906 84.668 0.003906 127v64.23c0 1.4609-0.09375 2.9141-0.57422 4.3086-1.5312 4.4297-4.5938 7.1133-9.1875 8.0586-0.88281 0.17969-1.7656 0.20703-2.6562 0.20703h-12.996c-20.969 0-41.941-0.003906-62.91 0.003906-1.3828 0-2.7539-0.070312-4.0781-0.49609-4.5586-1.4648-7.3594-4.5312-8.3008-9.2344-0.17188-0.86328-0.21875-1.7656-0.21875-2.6523-0.011719-13.113-0.011719-26.227 0-39.34 0-0.85938-0.12891-1.6758-0.375-2.5-5.8906-20.004-11.766-40.012-17.652-60.016-5.4531-18.531-10.906-37.062-16.383-55.586-0.5-1.6953-0.76172-3.3984-0.58984-5.1445 0.11328-1.1641 0.35937-2.3164 0.58203-3.4648 0.9375-4.7578 1.8906-9.5117 2.8359-14.27 1.0859-5.4727 2.168-10.945 3.2539-16.418 1.0234-5.1523 2.0391-10.309 3.0664-15.461 1.1055-5.5508 2.2188-11.098 3.3164-16.648 1.0078-5.0742 1.9961-10.156 3-15.23 0.76172-3.8438 1.5312-7.6875 2.293-11.535 0.9375-4.7188 1.8672-9.4375 2.8008-14.16 0.76172-3.8438 1.5273-7.6914 2.2852-11.535 0.94922-4.8008 1.8906-9.6016 2.8438-14.398 0.75391-3.8047 1.5195-7.6094 2.2812-11.414 0.34766-1.7461 0.71875-3.4844 1.0352-5.2344 0.14453-0.79297 0.1875-1.6055 0.26562-2.4102 0.94141-9.7266 6.9453-18.676 15.723-23.07 2.8828-1.4453 5.9102-2.4375 9.1016-2.8203 7.7969-0.92578 14.863 0.98828 21.047 5.8359 5.8125 4.5586 9.2969 10.578 10.676 17.809 0.45312 2.3867 0.58203 4.8047 0.39844 7.2422-0.18359 2.457-0.21875 4.9297-0.33203 7.3945-0.13281 2.8672-0.29297 5.7344-0.42969 8.6016-0.21875 4.6055-0.42578 9.2109-0.64062 13.812-0.16016 3.4336-0.32422 6.8672-0.48438 10.301-0.16016 3.3945-0.32422 6.7852-0.48438 10.18-0.16406 3.4336-0.32812 6.8672-0.48438 10.301-0.14062 3.0312-0.26953 6.0586-0.41406 9.0898-0.125 2.5859-0.27734 5.168-0.40234 7.7539-0.21875 4.6055-0.42578 9.2109-0.64062 13.812-0.16016 3.4727-0.32422 6.9453-0.48828 10.422-0.042969 0.92578-0.097656 1.8516-0.14453 2.7734 0.070313 0.015625 0.14844 0.03125 0.22656 0.046875zm30.188 151.05v-1.3867-135.73c0-0.44531-0.003906-0.89062-0.03125-1.3359-0.078125-1.4297-0.63672-2.6719-1.6094-3.707-0.38281-0.40625-0.85156-0.75781-1.3398-1.0273-1.4609-0.80078-2.8672-0.71484-4.1602 0.39453-1.7539 1.5039-2.6328 3.4453-2.8164 5.7188-0.050782 0.64453-0.019532 1.2969-0.10547 1.9375-0.30859 2.3242-0.64453 4.6445-0.98047 6.9648-0.53125 3.6797-1.0703 7.3633-1.5977 11.043-0.73047 5.1211-1.457 10.246-2.1758 15.371-0.078125 0.55859-0.15234 1.1289-0.13281 1.6914 0.13672 3.918 0.30078 7.8398 0.45703 11.758 0.078124 1.9375 0.19141 3.8789 0.22656 5.8164 0.015625 0.92578 0.003906 1.8789-0.18359 2.7773-0.92969 4.4258-3.5 7.543-7.793 8.9922-4.2266 1.4297-8.1406 0.61328-11.59-2.25-1.5625-1.2969-2.5703-2.9844-3.3633-4.832-2.082-4.8672-4.1914-9.7266-6.2852-14.59-3.6289-8.4258-7.2617-16.855-10.887-25.281-0.76172-1.7734-1.1445-3.6133-1.043-5.5547 0.15625-2.9883 0.30859-5.9766 0.44531-8.9648 0.11328-2.4648 0.19531-4.9297 0.3125-7.3945 0.21094-4.3633 0.44922-8.7227 0.66016-13.082 0.12109-2.5039 0.19922-5.0117 0.32031-7.5156 0.20312-4.1992 0.42969-8.3984 0.63281-12.598 0.125-2.5859 0.21094-5.1719 0.33203-7.7578 0.22656-4.8047 0.46875-9.6094 0.70312-14.414 0.14844-2.9883 0.30469-5.9766 0.44141-8.9648 0.11328-2.4648 0.19531-4.9297 0.3125-7.3945 0.20703-4.2812 0.4375-8.5586 0.64453-12.84 0.12109-2.543 0.21094-5.0898 0.33203-7.6367 0.20703-4.2812 0.43359-8.5586 0.64062-12.84 0.14063-2.8672 0.26563-5.7344 0.39063-8.6016 0.066406-1.4961 0.14844-2.9883 0.15625-4.4844 0.011718-1.6719-0.69531-3.0469-1.9219-4.1641-1.6289-1.4805-4.0781-1.4727-5.6953-0.21094-1.3516 1.0547-2.0859 2.4414-2.2344 4.1445-0.082031 0.92578-0.070313 1.8672-0.24609 2.7773-1.125 5.793-2.2852 11.578-3.4375 17.363-1.0781 5.4297-2.1641 10.859-3.2383 16.293-1.0898 5.5117-2.1641 11.027-3.2539 16.539-1.0273 5.1914-2.0664 10.383-3.0977 15.574-1.0859 5.4727-2.1641 10.945-3.25 16.414-1.1797 5.9453-2.3672 11.891-3.5469 17.84-1.0078 5.0742-2.0039 10.148-3.0078 15.223-0.93359 4.7188-1.875 9.4375-2.8125 14.156-1.1055 5.5508-2.2031 11.098-3.3164 16.645-0.16797 0.84766-0.16016 1.6406 0.09375 2.4961 4.3008 14.531 8.5703 29.07 12.844 43.609 2.9531 10.043 5.9023 20.086 8.8594 30.125 3.1484 10.703 6.3008 21.402 9.4531 32.102 0.089844 0.29688 0.22656 0.58203 0.32812 0.83594 1.6016 0.14062 55.461 0.10547 56.566-0.039062zm-53.539 23.875c-0.050781 0.15234-0.12109 0.26172-0.12109 0.375-0.007813 6.1094-0.007813 12.219-0.003907 18.328 0 0.10938 0.070313 0.22266 0.12109 0.37891 0.46875 0.13672 0.95312 0.082031 1.4258 0.082031 16.836 0.003906 33.672 0.003906 50.508 0.003906 0.28516 0 0.56641 0.011719 0.84766-0.003906 0.23047-0.015625 0.45703-0.070312 0.69922-0.11328 0.023437-0.25391 0.058594-0.45312 0.058594-0.65234 0.003906-5.9062 0.003906-11.812-0.003907-17.723 0-0.23047-0.066406-0.46094-0.10156-0.67188-0.99219-0.13281-50.309-0.22266-52.855-0.097656-0.19531 0.003906-0.38672 0.0625-0.57422 0.09375z"/>
  <path d="m267.07 164.91c-0.41406 0.40625-0.73828 0.71094-1.0508 1.0234-9.5898 9.5859-19.18 19.168-28.762 28.762-1.5508 1.5547-3.3594 2.6484-5.4883 3.1914-6.6445 1.6914-13.273-2.3711-14.582-9.125-0.77344-3.9805 0.29297-7.5312 3.0977-10.516 0.22266-0.23438 0.45703-0.45703 0.6875-0.6875 9.4453-9.4414 18.891-18.887 28.336-28.332 0.33984-0.33984 0.73047-0.63672 0.98437-1.125-0.32031-0.32812-0.62891-0.64062-0.94141-0.95312-9.5039-9.5-19.004-19.004-28.512-28.5-1.125-1.125-2.1055-2.3438-2.7773-3.7969-3.1055-6.7266 0.55469-14.945 8.3594-16.562 3.7891-0.78516 7.2148 0.17969 10.164 2.7148 0.46094 0.39453 0.89453 0.82031 1.3242 1.25 9.3633 9.3555 18.723 18.711 28.082 28.07 0.33984 0.33984 0.68359 0.67188 1.0664 1.0469 0.26953-0.22266 0.49219-0.38281 0.6875-0.57422 1.5508-1.5391 3.0938-3.0859 4.6406-4.6328 8.1562-8.1562 16.32-16.305 24.469-24.469 1.7031-1.707 3.6953-2.8789 6.0508-3.3828 6.4883-1.3828 12.75 2.7578 14.031 9.0391 0.85547 4.1914-0.20703 7.875-3.2305 10.91-9.5742 9.6016-19.172 19.18-28.758 28.766-0.34375 0.34375-0.67969 0.69141-1.0352 1.0547 0.17188 0.45703 0.55469 0.70703 0.85938 1.0117 7.5508 7.5586 15.109 15.113 22.664 22.668 1.9766 1.9727 3.9492 3.9492 5.9258 5.9219 1.125 1.1211 2.1055 2.3477 2.7656 3.8047 3.2344 7.125-1 15.043-8.2539 16.516-3.9453 0.80078-7.4531-0.15625-10.465-2.8477-0.36328-0.32422-0.70703-0.66797-1.0508-1.0117-9.418-9.4141-18.836-18.828-28.254-28.242-0.3125-0.31641-0.63672-0.61328-1.0352-0.99219z"/>
  <use x="70" y="644" xlink:href="#t"/>
  <use x="90.550781" y="644" xlink:href="#d"/>
  <use x="104.359375" y="644" xlink:href="#b"/>
  <use x="123.347656" y="644" xlink:href="#a"/>
  <use x="142.242188" y="644" xlink:href="#c"/>
  <use x="155.628906" y="644" xlink:href="#b"/>
  <use x="174.617188" y="644" xlink:href="#f"/>
  <use x="204.410156" y="644" xlink:href="#l"/>
  <use x="224.453125" y="644" xlink:href="#k"/>
  <use x="252.453125" y="644" xlink:href="#j"/>
  <use x="274.121094" y="644" xlink:href="#i"/>
  <use x="303.296875" y="644" xlink:href="#a"/>
  <use x="322.191406" y="644" xlink:href="#h"/>
  <use x="342.125" y="644" xlink:href="#f"/>
  <use x="362.167969" y="644" xlink:href="#a"/>
  <use x="390.8125" y="644" xlink:href="#s"/>
  <use x="414.242188" y="644" xlink:href="#g"/>
  <use x="434.179687" y="644" xlink:href="#a"/>
  <use x="70" y="672" xlink:href="#r"/>
  <use x="82.183594" y="672" xlink:href="#d"/>
  <use x="95.992188" y="672" xlink:href="#e"/>
  <use x="115.226562" y="672" xlink:href="#i"/>
  <use x="154.152344" y="672" xlink:href="#c"/>
  <use x="167.535156" y="672" xlink:href="#q"/>
  <use x="187.46875" y="672" xlink:href="#b"/>
  <use x="216.207031" y="672" xlink:href="#p"/>
  <use x="239.640625" y="672" xlink:href="#e"/>
  <use x="258.878906" y="672" xlink:href="#g"/>
  <use x="278.8125" y="672" xlink:href="#h"/>
  <use x="308.492188" y="672" xlink:href="#o"/>
  <use x="329.015625" y="672" xlink:href="#d"/>
  <use x="342.820312" y="672" xlink:href="#e"/>
  <use x="362.058594" y="672" xlink:href="#n"/>
  <use x="371.65625" y="672" xlink:href="#b"/>
  <use x="390.648438" y="672" xlink:href="#m"/>
  <use x="407.242188" y="672" xlink:href="#c"/>
 </g>
</svg>
